<?xml version="1.0" standalone="no"?>
<!DOCTYPE svg PUBLIC "-//W3C//DTD SVG 20010904//EN"
 "http://www.w3.org/TR/2001/REC-SVG-20010904/DTD/svg10.dtd">
<svg version="1.0" xmlns="http://www.w3.org/2000/svg"
 width="388.000000pt" height="87.000000pt" viewBox="0 0 388.000000 87.000000"
 preserveAspectRatio="xMidYMid meet">

<g transform="translate(0.000000,87.000000) scale(0.100000,-0.100000)"
fill="#000000" stroke="none">
<path d="M261 824 c-9 -20 -17 -25 -35 -22 -33 7 -63 -42 -44 -72 10 -16 10
-24 0 -40 -19 -31 12 -82 45 -74 17 5 25 0 34 -20 17 -37 71 -37 88 0 9 21 16
25 36 20 20 -5 27 -1 40 24 13 24 13 33 3 50 -10 16 -10 24 0 40 19 32 -8 79
-42 73 -20 -4 -28 0 -37 21 -10 20 -19 26 -44 26 -25 0 -34 -6 -44 -26z m121
-56 c18 4 20 2 13 -14 -14 -34 -17 -71 -6 -78 19 -12 12 -26 -14 -26 -15 0
-36 -11 -50 -26 -24 -25 -24 -25 -35 -4 -6 11 -24 23 -41 27 -32 6 -45 18 -29
28 5 3 10 19 10 35 0 16 -5 32 -10 35 -15 9 -1 27 16 21 7 -3 26 7 41 23 l28
28 27 -28 c20 -19 34 -26 50 -21z"/>
<path d="M281 726 c-16 -20 -3 -46 24 -46 25 0 38 21 29 45 -8 19 -38 19 -53
1z"/>
<path d="M1812 777 c-29 -31 -28 -42 10 -91 40 -51 47 -56 78 -56 27 0 127
-90 114 -103 -14 -14 9 -61 53 -109 71 -75 78 -77 124 -32 21 21 39 43 39 49
0 6 -28 39 -63 73 -49 48 -69 62 -93 62 -40 0 -124 83 -124 122 0 20 -13 37
-51 67 -29 23 -55 41 -59 41 -3 0 -16 -10 -28 -23z"/>
<path d="M2060 789 c-37 -15 -58 -38 -71 -76 -11 -33 -9 -37 27 -74 25 -26 47
-39 65 -39 14 0 38 -10 53 -21 l27 -21 30 28 c30 28 46 81 35 111 -6 14 -13
10 -45 -21 -30 -29 -45 -37 -67 -34 -25 3 -29 8 -32 37 -3 27 3 40 28 66 18
18 29 38 26 44 -9 13 -42 13 -76 0z"/>
<path d="M3531 722 c-66 -35 -90 -125 -51 -189 39 -65 105 -85 175 -54 37 16
50 29 66 66 55 124 -71 241 -190 177z"/>
<path d="M482 684 c-13 -9 -22 -23 -21 -32 3 -32 -1 -40 -21 -45 -15 -4 -20
-14 -20 -41 0 -25 5 -36 15 -36 18 0 34 -28 28 -51 -3 -12 4 -22 25 -33 26
-14 31 -14 42 -1 16 19 34 19 50 0 11 -13 15 -13 41 1 22 11 29 22 29 44 0 20
6 31 20 35 15 5 20 15 20 40 0 24 -6 38 -20 45 -13 7 -20 21 -20 39 0 36 -40
58 -70 39 -16 -10 -24 -10 -40 0 -25 16 -31 15 -58 -4z m42 -33 c3 -5 17 -8
31 -8 14 0 28 3 31 8 10 16 24 9 24 -11 0 -12 11 -32 25 -46 l26 -26 -26 -26
c-16 -15 -24 -33 -22 -44 6 -20 -8 -34 -18 -18 -8 13 -62 13 -70 0 -11 -18
-25 -10 -25 14 0 13 -11 34 -25 47 -28 27 -31 39 -12 39 14 0 37 40 37 65 0
16 16 20 24 6z"/>
<path d="M531 587 c-25 -31 13 -66 46 -42 14 11 16 18 7 32 -14 23 -38 28 -53
10z"/>
<path d="M1856 509 c-49 -53 -66 -79 -66 -100 0 -28 30 -59 58 -59 8 0 42 27
76 60 56 54 62 63 58 92 -4 30 -36 78 -52 78 -4 0 -37 -32 -74 -71z m17 -75
c9 -10 -4 -34 -18 -34 -17 0 -28 17 -20 30 7 11 28 13 38 4z"/>
<path d="M42 518 c-17 -17 -17 -319 0 -336 16 -16 210 -16 226 0 17 17 17 319
0 336 -16 16 -210 16 -226 0z m203 -168 l0 -145 -92 -3 -93 -3 0 151 0 151 93
-3 92 -3 0 -145z"/>
<path d="M125 241 c-7 -13 17 -24 40 -19 9 1 16 8 16 13 0 14 -48 19 -56 6z"/>
<path d="M1522 483 l3 -48 45 0 45 0 0 45 0 45 -48 3 -48 3 3 -48z"/>
<path d="M2462 483 l3 -48 45 0 45 0 0 45 0 45 -48 3 -48 3 3 -48z"/>
<path d="M3027 523 c-4 -6 9 -25 28 -43 19 -19 35 -38 35 -42 0 -4 -54 -8
-120 -8 -73 0 -120 -4 -120 -10 0 -6 47 -10 120 -10 66 0 120 -3 120 -7 0 -4
-16 -24 -36 -44 -20 -20 -32 -39 -27 -42 5 -4 34 19 64 49 l54 54 -56 56 c-31
31 -59 52 -62 47z"/>
<path d="M1117 513 c-4 -6 9 -25 28 -43 19 -19 35 -38 35 -42 0 -4 -54 -8
-120 -8 -73 0 -120 -4 -120 -10 0 -6 47 -10 120 -10 66 0 120 -3 120 -7 0 -4
-16 -24 -36 -44 -20 -20 -32 -39 -27 -42 5 -4 34 19 64 49 l54 54 -56 56 c-31
31 -59 52 -62 47z"/>
<path d="M1448 404 c-31 -16 -34 -30 -17 -68 16 -34 35 -39 70 -19 38 23 41
34 18 72 -21 35 -32 37 -71 15z"/>
<path d="M2388 404 c-31 -16 -34 -30 -17 -68 16 -34 35 -39 70 -19 38 23 41
34 18 72 -21 35 -32 37 -71 15z"/>
<path d="M3488 400 c-66 -20 -117 -80 -131 -157 -12 -60 -1 -63 234 -63 126 0
218 4 230 10 36 20 20 101 -29 154 -46 48 -96 66 -192 65 -47 0 -97 -4 -112
-9z"/>
<path d="M1572 353 c3 -47 4 -48 39 -51 44 -4 62 15 57 60 -3 32 -5 33 -51 36
l-48 3 3 -48z"/>
<path d="M2512 353 c3 -47 4 -48 39 -51 44 -4 62 15 57 60 -3 32 -5 33 -51 36
l-48 3 3 -48z"/>
<path d="M342 378 c-15 -15 -17 -251 -2 -279 9 -16 22 -19 80 -19 63 0 70 -2
70 -19 0 -14 -8 -21 -27 -23 -17 -2 -28 -9 -28 -18 0 -12 19 -15 115 -15 101
0 115 2 118 18 3 13 -3 17 -27 17 -24 0 -31 4 -31 20 0 18 7 20 68 20 40 0 73
5 80 12 17 17 17 269 0 286 -17 17 -399 17 -416 0z m396 -100 l3 -78 -186 0
-185 0 0 80 0 80 183 -2 182 -3 3 -77z m2 -127 c0 -40 -7 -41 -191 -41 l-179
0 0 25 0 25 185 0 c106 0 185 -4 185 -9z m-170 -75 c0 -2 3 -11 6 -20 5 -13
-1 -16 -25 -16 -33 0 -34 1 -25 24 5 14 44 24 44 12z"/>
<path d="M1371 266 c-7 -8 -11 -30 -9 -48 3 -32 5 -33 51 -36 l48 -3 -3 48
c-3 47 -4 48 -39 51 -22 2 -40 -2 -48 -12z"/>
<path d="M1501 266 c-7 -8 -11 -30 -9 -48 3 -32 5 -33 51 -36 l48 -3 -3 48
c-3 47 -4 48 -39 51 -22 2 -40 -2 -48 -12z"/>
<path d="M1633 273 c-8 -3 -13 -23 -13 -49 l0 -45 48 3 c47 3 47 3 50 42 2 24
-2 42 -10 47 -14 9 -55 11 -75 2z"/>
<path d="M2311 266 c-7 -8 -11 -30 -9 -48 3 -32 5 -33 51 -36 l48 -3 -3 48
c-3 47 -4 48 -39 51 -22 2 -40 -2 -48 -12z"/>
<path d="M2441 266 c-7 -8 -11 -30 -9 -48 3 -32 5 -33 51 -36 l48 -3 -3 48
c-3 47 -4 48 -39 51 -22 2 -40 -2 -48 -12z"/>
<path d="M2573 273 c-8 -3 -13 -23 -13 -49 l0 -45 48 3 c47 3 47 3 50 42 2 24
-2 42 -10 47 -14 9 -55 11 -75 2z"/>
</g>
</svg>
