<?xml version="1.0" standalone="no"?>
<!DOCTYPE svg PUBLIC "-//W3C//DTD SVG 20010904//EN"
 "http://www.w3.org/TR/2001/REC-SVG-20010904/DTD/svg10.dtd">
<svg version="1.0" xmlns="http://www.w3.org/2000/svg"
 width="197.000000pt" height="174.000000pt" viewBox="0 0 197.000000 174.000000"
 preserveAspectRatio="xMidYMid meet">

<g transform="translate(0.000000,174.000000) scale(0.100000,-0.100000)"
fill="#000000" stroke="none">
<path d="M701 1684 c-19 -24 -21 -40 -21 -149 0 -109 2 -125 21 -149 19 -24
27 -26 89 -26 38 0 76 3 85 6 9 4 27 28 40 55 39 76 76 75 116 -2 25 -50 44
-59 121 -59 106 0 108 4 108 175 0 137 -1 145 -22 159 -19 14 -62 16 -269 16
l-248 0 -20 -26z m161 -87 c28 -22 33 -62 9 -86 -26 -26 -55 -27 -81 -1 -11
11 -20 29 -20 40 0 25 34 60 58 60 9 0 25 -6 34 -13z m278 3 c31 -17 42 -45
28 -75 -15 -33 -51 -42 -83 -21 -31 20 -33 58 -5 86 23 23 33 24 60 10z"/>
<path d="M898 1161 c-29 -26 -33 -36 -33 -79 0 -36 6 -56 20 -72 77 -87 205
-40 205 76 0 28 -8 44 -34 70 -29 29 -41 34 -80 34 -36 0 -52 -6 -78 -29z"/>
<path d="M1743 1152 c-15 -9 -116 -360 -109 -379 3 -8 13 -13 22 -11 24 4 129
368 111 385 -7 7 -17 9 -24 5z"/>
<path d="M38 1138 c-8 -21 2 -38 22 -38 23 0 32 13 24 34 -7 19 -40 21 -46 4z"/>
<path d="M237 1144 c-4 -4 -7 -51 -7 -104 l0 -96 -85 -69 c-52 -42 -85 -75
-83 -84 7 -33 40 -22 113 38 40 34 76 61 80 61 3 0 38 -27 77 -60 73 -61 101
-72 112 -45 4 10 -21 38 -79 87 l-84 71 -3 101 c-2 82 -6 101 -18 104 -9 1
-19 0 -23 -4z"/>
<path d="M347 1144 c-4 -4 -7 -16 -7 -26 0 -14 6 -19 23 -16 14 2 22 10 22 23
0 20 -25 32 -38 19z"/>
<path d="M127 1063 c-10 -9 -8 -41 2 -47 16 -10 41 5 41 24 0 10 -7 21 -16 24
-19 7 -19 7 -27 -1z"/>
<path d="M433 1063 c-19 -7 -16 -40 4 -47 21 -8 36 6 31 30 -3 19 -16 25 -35
17z"/>
<path d="M1500 1014 l-52 -55 28 -31 c46 -50 78 -77 91 -78 27 0 23 24 -11 59
-20 20 -36 41 -36 46 0 5 16 26 36 46 23 24 34 43 31 53 -11 28 -33 18 -87
-40z"/>
<path d="M1827 1063 c-15 -15 -5 -41 28 -73 l35 -34 -35 -36 c-38 -39 -46 -70
-17 -70 18 0 112 88 112 106 0 10 -101 114 -111 114 -3 0 -9 -3 -12 -7z"/>
<path d="M34 969 c-3 -6 1 -18 10 -27 15 -15 17 -15 32 0 19 19 11 38 -16 38
-10 0 -22 -5 -26 -11z"/>
<path d="M342 958 c4 -30 43 -33 43 -3 0 13 -8 21 -23 23 -20 3 -23 0 -20 -20z"/>
<path d="M885 909 c-42 -12 -95 -69 -105 -114 -15 -67 -19 -66 199 -63 l196 3
3 25 c5 45 -38 113 -88 138 -47 24 -144 29 -205 11z"/>
<path d="M237 814 c-4 -4 -7 -16 -7 -26 0 -14 6 -19 23 -16 14 2 22 10 22 23
0 20 -25 32 -38 19z"/>
<path d="M805 475 c-24 -24 -25 -28 -25 -183 0 -112 4 -163 13 -176 19 -25 66
-32 220 -30 189 1 181 -9 181 210 0 217 12 204 -206 204 -155 0 -159 -1 -183
-25z m174 -166 c17 -40 31 -78 31 -85 0 -19 -26 -18 -34 1 -7 20 -72 20 -80 0
-7 -18 -36 -20 -36 -2 0 24 64 157 75 157 7 0 26 -32 44 -71z m111 -14 c0 -69
-3 -85 -15 -85 -12 0 -15 16 -15 85 0 69 3 85 15 85 12 0 15 -16 15 -85z"/>
<path d="M926 295 c-3 -9 0 -15 9 -15 16 0 20 16 6 24 -5 3 -11 -1 -15 -9z"/>
</g>
</svg>
